<svg data-v-423bf9ae="" xmlns="http://www.w3.org/2000/svg" viewBox="0 0 128.3481892892456 60" class="font"><!----><!----><!----><g data-v-423bf9ae="" id="46afe208-ad14-4b08-87b6-b86aa915e451" fill="black" transform="matrix(5.774947046169425,0,0,5.774947046169425,-6.208068556073002,-14.754989188464677)"><path d="M6.24 12.49L6.24 12.49Q6.02 12.24 5.77 11.80Q5.52 11.37 5.27 10.88Q5.03 10.40 4.80 9.95Q4.58 9.51 4.41 9.21L4.41 9.21Q4.19 8.82 3.98 8.46L3.98 8.46Q3.78 8.13 3.58 7.78Q3.37 7.43 3.22 7.17L3.22 7.17Q3.08 6.94 2.95 6.62Q2.83 6.30 2.72 6.06L2.72 6.06Q2.70 6.51 2.69 7.01Q2.69 7.52 2.68 7.98Q2.67 8.44 2.67 8.81Q2.67 9.17 2.67 9.35L2.67 9.35Q2.69 9.84 2.66 10.31Q2.63 10.78 2.63 11.27L2.63 11.27Q2.63 11.47 2.65 11.65Q2.66 11.83 2.66 12.03L2.66 12.03Q2.66 12.26 2.66 12.45Q2.66 12.64 2.63 12.81L2.63 12.81Q2.56 12.81 2.43 12.80Q2.30 12.78 2.16 12.77Q2.03 12.75 1.93 12.74Q1.82 12.73 1.82 12.73L1.82 12.73Q1.62 12.73 1.48 12.73Q1.33 12.74 1.12 12.66L1.12 12.66Q1.06 11.80 1.08 10.96Q1.11 10.12 1.12 9.28L1.12 9.28Q1.12 8.90 1.14 8.39Q1.16 7.87 1.18 7.29Q1.20 6.72 1.24 6.14Q1.27 5.56 1.32 5.05Q1.36 4.55 1.41 4.17Q1.47 3.79 1.54 3.63L1.54 3.63L1.54 3.58L1.57 3.56Q1.62 3.50 1.71 3.56Q1.79 3.63 1.83 3.57L1.83 3.57Q2.02 3.54 2.31 3.56Q2.60 3.58 2.79 3.58L2.79 3.58Q3.61 5.05 4.44 6.49Q5.26 7.92 6.12 9.37L6.12 9.37Q6.13 9.18 6.14 8.95Q6.15 8.71 6.15 8.49Q6.16 8.27 6.16 8.10Q6.16 7.92 6.15 7.85L6.15 7.85Q6.16 7.84 6.17 7.75Q6.19 7.66 6.19 7.55Q6.19 7.43 6.19 7.34Q6.19 7.24 6.19 7.21L6.19 7.21Q6.22 7.10 6.22 6.96Q6.22 6.83 6.22 6.72L6.22 6.72Q6.24 5.75 6.29 4.78Q6.34 3.81 6.47 2.86L6.47 2.86Q6.48 2.80 6.52 2.79Q6.55 2.77 6.59 2.77Q6.64 2.77 6.69 2.76Q6.73 2.74 6.76 2.69L6.76 2.69Q6.82 2.69 6.99 2.67Q7.15 2.65 7.34 2.61Q7.53 2.58 7.71 2.56Q7.88 2.55 7.95 2.56L7.95 2.56Q8.05 2.63 8.00 2.76Q7.95 2.88 7.98 3.00L7.98 3.00Q7.88 3.58 7.83 4.17Q7.77 4.75 7.74 5.33L7.74 5.33Q7.73 5.52 7.69 5.68Q7.66 5.85 7.64 6.03L7.64 6.03Q7.57 6.99 7.57 7.95Q7.57 8.92 7.56 9.88L7.56 9.88Q7.55 10.21 7.55 10.54Q7.55 10.88 7.55 11.21L7.55 11.21Q7.55 11.47 7.56 11.72Q7.57 11.98 7.55 12.24L7.55 12.24Q7.32 12.35 7.11 12.40L7.11 12.40Q6.79 12.49 6.64 12.50Q6.48 12.52 6.29 12.50L6.29 12.50L6.29 12.47Q6.24 12.47 6.24 12.49ZM11.86 6.76L11.86 6.76Q12.28 6.73 12.72 6.82Q13.16 6.90 13.52 7.15L13.52 7.15Q14.13 7.56 14.43 8.16Q14.74 8.76 14.77 9.41Q14.80 10.07 14.58 10.72Q14.36 11.37 13.94 11.87Q13.51 12.38 12.89 12.68Q12.26 12.98 11.48 12.94L11.48 12.94Q11.16 12.92 10.85 12.81L10.85 12.81Q10.21 12.59 9.78 12.19Q9.35 11.79 9.13 11.28Q8.90 10.77 8.88 10.20Q8.86 9.63 9.04 9.09Q9.21 8.54 9.58 8.06Q9.94 7.59 10.50 7.25L10.50 7.25Q10.65 7.15 10.84 7.05Q11.03 6.94 11.23 6.87L11.23 6.87Q11.38 6.82 11.55 6.80Q11.72 6.78 11.86 6.76ZM13.57 9.45L13.57 9.45Q13.57 9.00 13.37 8.66Q13.17 8.32 12.86 8.12Q12.54 7.92 12.15 7.88Q11.76 7.84 11.38 7.99Q11.00 8.15 10.68 8.50Q10.36 8.85 10.18 9.44L10.18 9.44Q10.14 9.58 10.09 9.71Q10.05 9.84 10.05 9.98L10.05 9.98Q10.05 10.26 10.09 10.54Q10.14 10.81 10.28 11.05L10.28 11.05Q10.53 11.48 11.07 11.60Q11.61 11.72 12.17 11.52Q12.73 11.31 13.15 10.79Q13.57 10.28 13.57 9.45ZM20.43 11.06L20.43 11.06Q20.48 10.91 20.64 10.53Q20.80 10.15 21.01 9.68Q21.21 9.21 21.45 8.69Q21.69 8.18 21.89 7.74Q22.09 7.31 22.25 7.01Q22.40 6.71 22.46 6.65L22.46 6.65Q22.65 6.58 22.90 6.70Q23.14 6.82 23.30 6.99L23.30 6.99Q23.25 7.15 23.23 7.20Q23.20 7.24 23.13 7.39L23.13 7.39Q22.89 7.90 22.63 8.44Q22.37 8.97 22.16 9.51L22.16 9.51Q22.05 9.77 21.97 9.97Q21.88 10.18 21.81 10.37Q21.73 10.56 21.65 10.76Q21.57 10.96 21.48 11.24L21.48 11.24Q21.43 11.37 21.35 11.56Q21.27 11.76 21.17 11.98Q21.07 12.19 20.99 12.39Q20.90 12.59 20.85 12.71L20.85 12.71Q20.78 12.73 20.64 12.73Q20.50 12.73 20.35 12.71Q20.20 12.70 20.07 12.70Q19.94 12.70 19.87 12.71L19.87 12.71Q19.84 12.64 19.76 12.45Q19.68 12.26 19.66 12.19L19.66 12.19Q19.57 12.01 19.49 11.65Q19.40 11.28 19.33 10.89Q19.25 10.50 19.17 10.14Q19.10 9.77 19.04 9.56L19.04 9.56L18.98 9.37Q18.91 9.53 18.82 9.81Q18.73 10.08 18.63 10.38Q18.54 10.68 18.45 10.98Q18.35 11.27 18.28 11.47L18.28 11.47Q18.24 11.59 18.19 11.77Q18.13 11.96 18.07 12.15Q18.00 12.35 17.95 12.52Q17.89 12.70 17.84 12.82L17.84 12.82Q17.77 12.84 17.63 12.84Q17.49 12.84 17.34 12.83Q17.19 12.82 17.06 12.82Q16.93 12.81 16.86 12.82L16.86 12.82Q16.83 12.75 16.75 12.57Q16.67 12.39 16.65 12.32L16.65 12.32Q16.56 12.12 16.46 11.84Q16.37 11.56 16.28 11.27Q16.18 10.98 16.09 10.69Q16.00 10.40 15.95 10.21L15.95 10.21Q15.79 9.65 15.67 9.09Q15.54 8.53 15.43 7.95L15.43 7.95Q15.40 7.80 15.39 7.67Q15.37 7.53 15.32 7.38L15.32 7.38Q15.48 7.20 15.60 7.11Q15.72 7.03 15.83 7Q15.93 6.97 16.04 6.99Q16.14 7 16.27 7L16.27 7Q16.31 7.13 16.35 7.31Q16.38 7.49 16.42 7.69Q16.46 7.88 16.50 8.06Q16.53 8.25 16.58 8.37L16.58 8.37Q16.77 9.06 16.93 9.78Q17.09 10.50 17.37 11.16L17.37 11.16Q17.42 11.03 17.55 10.62Q17.68 10.21 17.86 9.68Q18.03 9.16 18.24 8.60Q18.44 8.04 18.62 7.62L18.62 7.62Q18.93 7.50 19.13 7.47Q19.33 7.43 19.66 7.48L19.66 7.48Q19.75 7.81 19.85 8.28Q19.95 8.75 20.05 9.25Q20.15 9.76 20.24 10.23Q20.33 10.71 20.43 11.06Z"></path></g><!----><!----></svg>